<svg version="1.1" id="Layer_1" xmlns="http://www.w3.org/2000/svg" xmlns:xlink="http://www.w3.org/1999/xlink" x="0px" y="0px"
	 width="100%" viewBox="0 0 217 217" enable-background="new 0 0 217 217" xml:space="preserve">
<path fill="#1A8951" opacity="1.000000" stroke="none" 
	d="
M151.000000,218.000000 
	C100.666672,218.000000 50.833340,218.000000 1.000007,218.000000 
	C1.000005,145.666672 1.000005,73.333351 1.000002,1.000016 
	C73.333321,1.000011 145.666641,1.000011 217.999969,1.000005 
	C217.999985,73.333321 217.999985,145.666641 218.000000,217.999969 
	C195.833328,218.000000 173.666672,218.000000 151.000000,218.000000 
M157.029495,83.986885 
	C157.029495,83.986885 157.080521,83.922745 156.738068,83.357147 
	C155.192245,82.487473 153.646408,81.617790 151.860916,80.317116 
	C151.596970,80.093094 151.292007,79.987457 150.568802,79.448631 
	C146.188934,76.780464 141.809052,74.112297 137.062378,71.990913 
	C137.188354,71.810760 137.314316,71.630615 137.020920,70.971764 
	C135.713211,70.269920 134.405487,69.568069 133.047958,68.969345 
	C133.047958,68.969345 133.130142,68.889565 132.793900,68.301537 
	C128.203430,65.525795 123.612946,62.750057 119.000000,60.000153 
	C119.000000,60.000153 119.025200,59.976414 118.708061,59.376183 
	C116.514488,58.003845 114.458450,56.244003 112.077698,55.399086 
	C110.558884,54.860065 108.559288,55.675812 106.106544,56.024921 
	C99.145195,60.345737 92.183846,64.666550 84.313118,69.551804 
	C84.313118,63.727730 84.313118,58.993530 84.313118,54.192890 
	C77.195312,54.192890 70.668549,54.192890 63.887344,54.192890 
	C63.887344,62.416233 63.693134,70.229790 63.975727,78.026062 
	C64.102097,81.512604 62.830597,83.410271 59.929882,85.115112 
	C53.097336,89.130844 46.463310,93.484344 39.428589,97.902412 
	C42.057983,102.008827 44.347561,105.584534 46.873779,109.827888 
	C47.988785,111.587532 49.103790,113.347183 50.228661,115.122391 
	C51.983696,114.305725 53.432831,113.631393 55.512192,112.807205 
	C55.973198,112.374001 56.434200,111.940804 57.358204,111.090317 
	C58.259892,110.580551 59.161579,110.070778 60.511387,110.239571 
	C61.017704,116.502136 61.524025,122.764702 61.584072,129.719604 
	C61.470016,140.950348 61.352341,152.181076 61.274960,163.412079 
	C61.273746,163.587646 61.768597,163.766647 62.506775,164.210861 
	C62.989464,164.452957 63.472153,164.695038 64.847992,165.110214 
	C67.564613,165.209671 70.281227,165.309128 73.366219,165.989029 
	C75.912117,165.796112 78.458023,165.603210 81.925415,165.233154 
	C105.609512,165.290619 129.293610,165.348083 153.021149,166.035309 
	C153.709930,166.753677 154.398727,167.472046 155.087524,168.190414 
	C155.715408,166.487335 156.343307,164.784241 156.984100,162.133774 
	C156.990219,157.635971 157.154205,153.130966 156.949295,148.642792 
	C156.802185,145.420197 156.162170,142.220123 155.471436,138.121140 
	C155.562805,134.410172 155.654175,130.699203 156.246582,126.483864 
	C156.069672,121.997826 155.892761,117.511787 155.424622,112.300232 
	C155.543640,111.543655 155.662643,110.787079 156.133667,110.010986 
	C156.385071,109.782280 156.636459,109.553574 157.544464,109.153801 
	C159.031906,110.139198 160.519363,111.124603 162.373016,112.664963 
	C164.170364,114.554970 165.739960,117.088409 169.262634,114.526390 
	C169.765976,113.983681 170.269333,113.440971 171.501785,112.814850 
	C178.382095,110.526306 177.598785,103.839523 179.571625,98.657310 
	C179.571625,98.657310 179.650894,98.634850 179.863297,98.619392 
	C179.863297,98.619392 179.954941,98.358185 179.954941,98.358185 
	C179.954941,98.358185 179.716156,98.189911 179.319199,97.654816 
	C174.397064,94.598244 169.474915,91.541672 164.523056,88.416031 
	C164.523056,88.416031 164.448547,88.426346 164.008896,87.953926 
	C162.099258,86.853928 160.189606,85.753937 158.264191,84.762405 
	C158.264191,84.762405 158.373611,84.768860 158.097931,84.267723 
	C157.746826,84.147263 157.395706,84.026802 157.029495,83.986885 
M156.529083,129.499802 
	C156.529083,129.499802 156.488892,129.515656 156.529083,129.499802 
M156.502899,136.472214 
	C156.502899,136.472214 156.517136,136.513031 156.502899,136.472214 
z"/>
<path fill="#F0F2F5" opacity="1.000000" stroke="none" 
	d="
M152.977707,165.405548 
	C129.293610,165.348083 105.609512,165.290619 81.030586,165.217453 
	C77.756454,165.270691 75.377151,165.339630 72.997849,165.408569 
	C70.281227,165.309128 67.564613,165.209671 64.412613,164.562271 
	C63.981316,160.695877 63.988396,157.377426 63.988972,154.058975 
	C63.991451,139.789413 64.026184,125.519661 63.942913,111.250603 
	C63.934128,109.745483 65.131241,106.589058 60.848877,108.096619 
	C57.069321,107.630081 53.706963,107.180092 50.344604,106.730095 
	C50.379223,106.339951 50.413837,105.949806 50.448456,105.559662 
	C49.178017,106.759857 47.907578,107.960045 46.637138,109.160233 
	C44.347561,105.584534 42.057983,102.008827 39.428589,97.902412 
	C46.463310,93.484344 53.097336,89.130844 59.929882,85.115112 
	C62.830597,83.410271 64.102097,81.512604 63.975727,78.026062 
	C63.693134,70.229790 63.887344,62.416233 63.887344,54.192890 
	C70.668549,54.192890 77.195312,54.192890 84.313118,54.192890 
	C84.313118,58.993530 84.313118,63.727730 84.313118,69.551804 
	C92.183846,64.666550 99.145195,60.345737 106.845657,55.988655 
	C109.103279,56.446339 110.633362,56.907684 112.137611,57.441818 
	C114.442825,58.260357 116.730232,59.129025 119.025200,59.976414 
	C119.025200,59.976414 119.000000,60.000153 119.106506,60.320408 
	C122.364250,65.900436 127.391693,67.994797 133.130142,68.889565 
	C133.130142,68.889565 133.047958,68.969345 133.102112,69.302376 
	C134.584274,70.240425 136.012268,70.845444 137.440262,71.450462 
	C137.314316,71.630615 137.188354,71.810760 137.277344,72.142075 
	C137.697464,74.103500 137.430862,76.176254 138.248489,77.645737 
	C138.977875,78.956619 140.838150,80.245926 142.319046,80.400848 
	C145.149750,80.696991 148.065552,80.179817 150.946030,80.000198 
	C151.292007,79.987457 151.596970,80.093094 152.065857,80.878036 
	C153.874039,82.266884 155.477280,83.094810 157.080521,83.922745 
	C157.080521,83.922745 157.029495,83.986885 157.224792,84.137482 
	C157.737946,84.448341 158.055771,84.608597 158.373611,84.768860 
	C158.373611,84.768860 158.264191,84.762405 158.290115,85.080750 
	C160.360214,86.408173 162.404373,87.417259 164.448547,88.426346 
	C164.448547,88.426346 164.523056,88.416031 164.436234,88.843582 
	C164.088257,94.092247 168.860153,94.329185 171.182281,96.798843 
	C172.094025,97.768524 173.769913,99.136909 173.552475,99.857239 
	C172.624084,102.932732 171.553070,106.144806 169.712189,108.719353 
	C167.454895,111.876228 164.895889,110.713623 163.086960,107.780571 
	C161.091370,104.544846 158.088638,104.395462 155.371521,107.788834 
	C155.576645,108.749153 155.679153,109.389832 155.781662,110.030502 
	C155.662643,110.787079 155.543640,111.543655 155.450745,113.074783 
	C155.566406,118.228966 155.655975,122.608597 155.745544,126.988235 
	C155.654175,130.699203 155.562805,134.410172 155.472977,139.013916 
	C155.550064,147.585800 155.625610,155.264923 155.553253,163.243744 
	C154.596130,164.164154 153.786911,164.784851 152.977707,165.405548 
z"/>
<path fill="#E7F5F1" opacity="1.000000" stroke="none" 
	d="
M155.268890,107.469185 
	C158.088638,104.395462 161.091370,104.544846 163.086960,107.780571 
	C164.895889,110.713623 167.454895,111.876228 169.712189,108.719353 
	C171.553070,106.144806 172.624084,102.932732 173.552475,99.857239 
	C173.769913,99.136909 172.094025,97.768524 171.182281,96.798843 
	C168.860153,94.329185 164.088257,94.092247 164.451096,88.878128 
	C169.474915,91.541672 174.397064,94.598244 179.425873,98.022125 
	C179.532547,98.389427 179.650894,98.634850 179.650894,98.634850 
	C179.650894,98.634850 179.571625,98.657310 179.321381,98.903252 
	C176.304977,103.732216 173.538818,108.315239 170.772675,112.898262 
	C170.269333,113.440971 169.765976,113.983681 168.778046,114.660233 
	C166.197922,113.899384 164.102356,113.004692 162.006805,112.110001 
	C160.519363,111.124603 159.031906,110.139198 157.126434,108.996368 
	C156.228561,108.382347 155.748734,107.925766 155.268890,107.469185 
z"/>
<path fill="#39855E" opacity="1.000000" stroke="none" 
	d="
M61.266075,108.113167 
	C65.131241,106.589058 63.934128,109.745483 63.942913,111.250603 
	C64.026184,125.519661 63.991451,139.789413 63.988972,154.058975 
	C63.988396,157.377426 63.981316,160.695877 63.966034,164.475723 
	C63.472153,164.695038 62.989464,164.452957 62.266876,163.614563 
	C62.028099,151.687943 62.029224,140.357605 62.030346,129.027267 
	C61.524025,122.764702 61.017704,116.502136 60.428677,109.704239 
	C60.652668,108.817001 60.959370,108.465080 61.266075,108.113167 
z"/>
<path fill="#DDF2EA" opacity="1.000000" stroke="none" 
	d="
M60.848877,108.096619 
	C60.959370,108.465080 60.652668,108.817001 60.204617,109.364960 
	C59.161579,110.070778 58.259892,110.580551 56.813095,111.388702 
	C55.805981,112.110420 55.343971,112.533745 54.881962,112.957069 
	C53.432831,113.631393 51.983696,114.305725 50.228661,115.122391 
	C49.103790,113.347183 47.988785,111.587532 46.755459,109.494064 
	C47.907578,107.960045 49.178017,106.759857 50.448456,105.559662 
	C50.413837,105.949806 50.379223,106.339951 50.344604,106.730095 
	C53.706963,107.180092 57.069321,107.630081 60.848877,108.096619 
z"/>
<path fill="#E1F3E8" opacity="1.000000" stroke="none" 
	d="
M150.757416,79.724419 
	C148.065552,80.179817 145.149750,80.696991 142.319046,80.400848 
	C140.838150,80.245926 138.977875,78.956619 138.248489,77.645737 
	C137.430862,76.176254 137.697464,74.103500 137.460739,71.868683 
	C141.809052,74.112297 146.188934,76.780464 150.757416,79.724419 
z"/>
<path fill="#1B7E52" opacity="1.000000" stroke="none" 
	d="
M155.701157,162.944031 
	C155.625610,155.264923 155.550064,147.585800 155.608276,139.458344 
	C156.162170,142.220123 156.802185,145.420197 156.949295,148.642792 
	C157.154205,153.130966 156.990219,157.635971 156.661301,162.563400 
	C156.126068,162.976700 155.913620,162.960373 155.701157,162.944031 
z"/>
<path fill="#368960" opacity="1.000000" stroke="none" 
	d="
M171.137238,112.856552 
	C173.538818,108.315239 176.304977,103.732216 179.325531,98.944244 
	C177.598785,103.839523 178.382095,110.526306 171.137238,112.856552 
z"/>
<path fill="#E1F3E8" opacity="1.000000" stroke="none" 
	d="
M132.962021,68.595551 
	C127.391693,67.994797 122.364250,65.900436 119.117737,60.307491 
	C123.612946,62.750057 128.203430,65.525795 132.962021,68.595551 
z"/>
<path fill="#218E5A" opacity="1.000000" stroke="none" 
	d="
M61.807209,129.373444 
	C62.029224,140.357605 62.028099,151.687943 62.029461,163.481155 
	C61.768597,163.766647 61.273746,163.587646 61.274960,163.412079 
	C61.352341,152.181076 61.470016,140.950348 61.807209,129.373444 
z"/>
<path fill="#1B7E52" opacity="1.000000" stroke="none" 
	d="
M155.996063,126.736053 
	C155.655975,122.608597 155.566406,118.228966 155.596344,113.437538 
	C155.892761,117.511787 156.069672,121.997826 155.996063,126.736053 
z"/>
<path fill="#E1F3E8" opacity="1.000000" stroke="none" 
	d="
M118.866631,59.676300 
	C116.730232,59.129025 114.442825,58.260357 112.137611,57.441818 
	C110.633362,56.907684 109.103279,56.446339 107.180008,55.918259 
	C108.559288,55.675812 110.558884,54.860065 112.077698,55.399086 
	C114.458450,56.244003 116.514488,58.003845 118.866631,59.676300 
z"/>
<path fill="#39855E" opacity="1.000000" stroke="none" 
	d="
M155.553253,163.243744 
	C155.913620,162.960373 156.126068,162.976700 156.654846,163.037079 
	C156.343307,164.784241 155.715408,166.487335 155.087524,168.190414 
	C154.398727,167.472046 153.709930,166.753677 152.999420,165.720428 
	C153.786911,164.784851 154.596130,164.164154 155.553253,163.243744 
z"/>
<path fill="#39855E" opacity="1.000000" stroke="none" 
	d="
M73.182037,165.698792 
	C75.377151,165.339630 77.756454,165.270691 80.569839,165.306030 
	C78.458023,165.603210 75.912117,165.796112 73.182037,165.698792 
z"/>
<path fill="#E7F5F1" opacity="1.000000" stroke="none" 
	d="
M164.228729,88.190140 
	C162.404373,87.417259 160.360214,86.408173 158.298004,85.026520 
	C160.189606,85.753937 162.099258,86.853928 164.228729,88.190140 
z"/>
<path fill="#368960" opacity="1.000000" stroke="none" 
	d="
M162.189911,112.387482 
	C164.102356,113.004692 166.197922,113.899384 168.620865,114.893280 
	C165.739960,117.088409 164.170364,114.554970 162.189911,112.387482 
z"/>
<path fill="#E1F3E8" opacity="1.000000" stroke="none" 
	d="
M137.230591,71.211113 
	C136.012268,70.845444 134.584274,70.240425 133.127029,69.250809 
	C134.405487,69.568069 135.713211,70.269920 137.230591,71.211113 
z"/>
<path fill="#E7F5F1" opacity="1.000000" stroke="none" 
	d="
M156.909302,83.639938 
	C155.477280,83.094810 153.874039,82.266884 152.185699,81.093536 
	C153.646408,81.617790 155.192245,82.487473 156.909302,83.639938 
z"/>
<path fill="#39855E" opacity="1.000000" stroke="none" 
	d="
M155.371521,107.788834 
	C155.748734,107.925766 156.228561,108.382347 156.798126,109.081894 
	C156.636459,109.553574 156.385071,109.782280 155.957672,110.020744 
	C155.679153,109.389832 155.576645,108.749153 155.371521,107.788834 
z"/>
<path fill="#39855E" opacity="1.000000" stroke="none" 
	d="
M55.197075,112.882141 
	C55.343971,112.533745 55.805981,112.110420 56.581596,111.597351 
	C56.434200,111.940804 55.973198,112.374001 55.197075,112.882141 
z"/>
<path fill="#1B7E52" opacity="1.000000" stroke="none" 
	d="
M156.508987,129.507721 
	C156.488892,129.515656 156.529083,129.499802 156.508987,129.507721 
z"/>
<path fill="#1B7E52" opacity="1.000000" stroke="none" 
	d="
M156.510010,136.492615 
	C156.517136,136.513031 156.502899,136.472214 156.510010,136.492615 
z"/>
<path fill="#368960" opacity="1.000000" stroke="none" 
	d="
M179.757095,98.627121 
	C179.650894,98.634850 179.532547,98.389427 179.624359,98.289673 
	C179.716156,98.189911 179.954941,98.358185 179.954941,98.358185 
	C179.954941,98.358185 179.863297,98.619392 179.757095,98.627121 
z"/>
<path fill="#E7F5F1" opacity="1.000000" stroke="none" 
	d="
M158.235779,84.518288 
	C158.055771,84.608597 157.737946,84.448341 157.232361,84.097214 
	C157.395706,84.026802 157.746826,84.147263 158.235779,84.518288 
z"/>
</svg>